<svg viewBox="0 0 258 188" class="opt-logo-svg opt-logo-svg-color" xmlns="http://www.w3.org/2000/svg" xmlns:xlink="http://www.w3.org/1999/xlink" version="1.1" xml:space="preserve">
  <defs>
    <path id="a" d="M0 0h533.969v224.912H0z"></path>
  </defs>
  <clipPath id="b">
    <use xlink:href="#a" overflow="visible"></use>
  </clipPath>
  <path clip-path="url(#b)" fill="#FDC40A" d="M215.371 118.66l-6.495 7.485c-5.859 1.297-10.57 2.405-19.602 9.353-4.33 3.324-22.946 10.649-27.61 31.26l.665 6.961h82.769V15.441H116.977s29.986 12.839 36.315 15.836c6.312 2.987 9.428 5.106 16.418 10.103 6.994 4.973 39.859 34.262 43.514 50.547 2.24 9.956 4.043 14.824 5.159 19.893l-3.012 6.84z"></path>
  <path fill="#079BAB" d="M262.676 148.703h271.099v24.992H262.676z"></path>
  <defs>
    <path id="c" d="M0 0h533.969v224.912H0z"></path>
  </defs>
  <clipPath id="d">
    <use xlink:href="#c" overflow="visible"></use>
  </clipPath>
  <path clip-path="url(#d)" fill="#FFF" d="M269.145 170.25v-17.521h2.613l5.862 8.872c1.325 2.046 2.406 3.867 3.268 5.702l.076-.033c-.216-2.344-.273-4.477-.273-7.184v-7.357h2.222v17.521h-2.377l-5.83-8.886c-1.293-1.939-2.513-3.956-3.396-5.853l-.093.033c.133 2.208.15 4.318.15 7.212v7.493h-2.222zM294.645 170.532c-3.551 0-6.317-2.492-6.317-6.463 0-4.207 2.903-6.678 6.522-6.678 3.795 0 6.349 2.618 6.349 6.437 0 4.693-3.397 6.704-6.524 6.704h-.03zm.072-1.713c2.287 0 4-2.047 4-4.904 0-2.129-1.128-4.811-3.956-4.811-2.797 0-4.029 2.495-4.029 4.89 0 2.753 1.638 4.825 3.953 4.825h.032zM317.556 166.819c0 1.307.029 2.456.122 3.432h-2.14l-.129-2.05h-.046c-.604 1.026-2.016 2.33-4.359 2.33-2.079 0-4.542-1.113-4.542-5.5v-7.353h2.377v6.933c0 2.388.797 4.031 2.944 4.031 1.608 0 2.718-1.055 3.156-2.11.153-.3.229-.719.229-1.152v-7.701h2.388v9.14zM324.774 157.68l2.588 7.041c.436 1.166.779 2.204 1.049 3.257h.09c.306-1.053.692-2.091 1.112-3.257l2.561-7.041h2.51l-5.174 12.57h-2.287l-5.005-12.57h2.556zM340.318 164.354c.064 3.098 2.107 4.362 4.499 4.362 1.709 0 2.782-.277 3.65-.618l.42 1.608c-.836.363-2.314.815-4.403.815-4.029 0-6.479-2.57-6.479-6.345 0-3.823 2.377-6.814 6.208-6.814 4.301 0 5.428 3.609 5.428 5.924 0 .472-.031.827-.089 1.103l-9.234-.035zm7.012-1.641c.011-1.426-.635-3.71-3.311-3.71-2.434 0-3.489 2.134-3.669 3.71h6.98z"></path>
  <path fill="#FFF" d="M354.901 151.802h2.408v18.446h-2.408zM363.597 151.802h2.405v18.446h-2.405z"></path>
  <g>
    <defs>
      <path id="e" d="M0 0h533.969v224.912H0z"></path>
    </defs>
    <clipPath id="f">
      <use xlink:href="#e" overflow="visible"></use>
    </clipPath>
    <path clip-path="url(#f)" fill="#FFF" d="M373.638 164.354c.065 3.098 2.107 4.362 4.513 4.362 1.713 0 2.768-.277 3.638-.618l.438 1.608c-.844.363-2.315.815-4.406.815-4.027 0-6.493-2.57-6.493-6.345 0-3.823 2.377-6.814 6.225-6.814 4.294 0 5.411 3.609 5.411 5.924 0 .472-.029.827-.09 1.103l-9.236-.035zm7.008-1.641c.032-1.426-.632-3.71-3.289-3.71-2.452 0-3.488 2.134-3.69 3.71h6.979z"></path>
  </g>
  <path fill="#FFF" d="M387.08 162.404h6.707v1.669h-6.707z"></path>
  <g>
    <defs>
      <path id="g" d="M0 0h533.969v224.912H0z"></path>
    </defs>
    <clipPath id="h">
      <use xlink:href="#g" overflow="visible"></use>
    </clipPath>
    <path clip-path="url(#h)" fill="#FFF" d="M411.803 169.706c-.847.417-2.616.827-4.856.827-5.17 0-9.037-3.109-9.037-8.883 0-5.504 3.892-9.198 9.593-9.198 2.251 0 3.73.463 4.341.775l-.582 1.85c-.89-.424-2.168-.722-3.684-.722-4.319 0-7.173 2.621-7.173 7.22 0 4.313 2.581 7.052 7.037 7.052 1.476 0 2.93-.303 3.881-.74l.48 1.819zM426.113 167.236c0 1.09.061 2.158.201 3.014h-2.158l-.212-1.58h-.082c-.711.991-2.154 1.864-4.032 1.864-2.675 0-4.028-1.789-4.028-3.609 0-3.037 2.821-4.707 7.92-4.674v-.259c0-1.037-.298-2.944-2.987-2.915-1.267 0-2.527.348-3.461.933l-.542-1.533c1.085-.649 2.692-1.084 4.361-1.084 4.043 0 5.021 2.617 5.021 5.142v4.701zm-2.344-3.406c-2.6-.046-5.562.392-5.562 2.84 0 1.505 1.02 2.176 2.223 2.176 1.744 0 2.857-1.034 3.245-2.1.064-.228.094-.495.094-.737v-2.179z"></path>
  </g>
  <path fill="#FFF" d="M432.278 151.802h2.391v18.446h-2.391z"></path>
  <g>
    <defs>
      <path id="i" d="M0 0h533.969v224.912H0z"></path>
    </defs>
    <clipPath id="j">
      <use xlink:href="#i" overflow="visible"></use>
    </clipPath>
    <path clip-path="url(#j)" fill="#FFF" d="M442.322 164.353c.061 3.099 2.089 4.362 4.479 4.362 1.716 0 2.801-.275 3.655-.617l.435 1.608c-.836.363-2.315.815-4.405.815-4.042 0-6.479-2.57-6.479-6.345 0-3.822 2.376-6.813 6.211-6.813 4.3 0 5.413 3.608 5.413 5.924 0 .47-.017.826-.075 1.102l-9.234-.036zm6.993-1.641c.028-1.425-.621-3.708-3.293-3.708-2.45 0-3.488 2.132-3.669 3.708h6.962zm.575-10.3l-3.331 3.734h-1.684l2.404-3.734h2.611zM468.305 151.802V167c0 1.127.017 2.395.089 3.249h-2.137l-.118-2.179h-.058c-.722 1.415-2.315 2.463-4.448 2.463-3.191 0-5.673-2.556-5.673-6.388-.027-4.211 2.719-6.752 5.913-6.752 2.043 0 3.394.903 3.968 1.895h.058v-7.486h2.406zm-2.407 10.99c0-.318-.029-.678-.122-.994-.341-1.425-1.656-2.613-3.454-2.613-2.47 0-3.942 2.074-3.942 4.839 0 2.574 1.34 4.679 3.896 4.679 1.604 0 3.084-1.038 3.501-2.74.093-.315.122-.613.122-.977v-2.194zM479.942 170.532c-3.532 0-6.312-2.492-6.312-6.463 0-4.207 2.911-6.678 6.534-6.678 3.773 0 6.329 2.618 6.329 6.437 0 4.693-3.392 6.704-6.522 6.704h-.029zm.094-1.713c2.284 0 3.996-2.047 3.996-4.904 0-2.129-1.113-4.811-3.938-4.811-2.814 0-4.028 2.495-4.028 4.89 0 2.753 1.623 4.825 3.935 4.825h.035zM491.851 161.076c0-1.325-.029-2.359-.119-3.396h2.136l.129 2.043h.047c.665-1.17 2.184-2.329 4.366-2.329 1.835 0 4.657 1.036 4.657 5.353v7.504h-2.406v-7.249c0-2.029-.779-3.741-3.037-3.741-1.562 0-2.782 1.066-3.217 2.342-.121.286-.165.692-.165 1.065v7.583h-2.391v-9.175zM510.403 155.365c-.888 0-1.49-.675-1.49-1.491 0-.793.639-1.461 1.554-1.461.935 0 1.53.668 1.53 1.461 0 .816-.596 1.491-1.56 1.491h-.034zm-1.138 2.315h2.406v12.57h-2.406v-12.57zM519.321 164.354c.046 3.098 2.092 4.362 4.498 4.362 1.712 0 2.764-.277 3.637-.618l.453 1.608c-.863.363-2.313.815-4.424.815-4.032 0-6.477-2.57-6.477-6.345 0-3.823 2.358-6.814 6.21-6.814 4.303 0 5.41 3.609 5.41 5.924 0 .472-.035.827-.075 1.103l-9.232-.035zm6.993-1.641c.031-1.426-.636-3.71-3.293-3.71-2.451 0-3.475 2.134-3.684 3.71h6.977z"></path>
    <path clip-path="url(#j)" class="color-blue" fill="#28347C" d="M411.168 15.89H373.553v28.542c-9.112-17.704-26.425-29.67-50.989-29.67-36.161 0-59.906 27.58-59.906 64.463 0 35.058 21.548 62.638 57.888 62.638h.193c24.148 0 43.012-10.961 52.813-30.42v28.371h27.576V95.657c2.553.539 5.827.722 9.5.722 16.432 0 30.675-4.201 40.16-12.961 7.306-6.75 11.141-16.978 11.141-29.203 0-5.561-1.099-10.727-3.041-15.276h13.836v100.875h27.76V38.939h33.483V15.89H411.168zm-89.34 103.869h-.184c-18.626 0-29.773-18.07-29.773-41.256 0-23.02 10.789-41.64 29.957-41.64s29.591 18.993 29.591 41.084c0 24.097-10.785 41.812-29.591 41.812m88.617-44.735c-4.014 0-6.947-.176-9.316-.732V37.966c2.014-.557 5.827-.915 11.5-.915 14.055 0 21.728 6.745 21.728 18.069-.001 12.404-9.128 19.904-23.912 19.904M165.952 38.758C125.993 7.473 71.213-10.698 17.711 6.841l1.155 23.153C53.639 16.84 120.197 17.45 165.952 38.758M213.962 94.935c-3.447-25.968-22.492-44.293-48.012-56.177 20.751 16.247 37.507 36.022 48.012 56.177M113.58 59.238C49.437 20.776 0 52.564 0 52.564l8.559 26.068S59.691 55.436 113.58 59.238M71.932 116.645l14.899 11.036s8.139-22.03 33.4-27.889c-26.317-8.542-48.299 16.853-48.299 16.853M117.745 85.175C70.58 55.15 32.774 90.38 32.774 90.38l11.13 16.943c.001 0 28.855-32.883 73.841-22.148M208.863 126.136c15.621-5.146 71.302 12.296 83.555 18.579-42.521-27.757-61.256-26.593-74.069-32.894-3.11 5.533-9.486 14.315-9.486 14.315M188.054 94.094c-6.366-3.712-15.428 3.108-5.727 7.381 9.439 4.151 17.876 2.51 15.98.962-1.429-1.156-9.399-7.234-10.253-8.343M149.304 168.021l16.748 14.028c-9.245-31.683 33.806-53.146 33.806-53.146-27.903 10.642-39.245 19.289-50.554 39.118M34.12 224.564v-5.54h-9.777v-19.847h-6.861v25.387H34.12zm18.069-5.589h-8.214v-4.793h7.607v-5.508h-7.607v-3.992h8.214v-5.504H37.117v25.387h15.072v-5.59zm32.054 5.589l5.12-18.249h.158c-.141 2.753-.22 4.484-.234 5.191-.018.702-.029 1.346-.029 1.928v11.13h6.305v-25.387h-9.152L81.22 217.2h-.14l-5.296-18.022h-9.133v25.387h6.078v-11.026c0-1.727-.122-4.146-.366-7.259h.158l5.191 18.285h6.531zm36.354-22.47c-2.086-2.212-5.148-3.318-9.187-3.318-4.029 0-7.102 1.117-9.212 3.347-2.111 2.226-3.17 5.453-3.17 9.679 0 4.272 1.062 7.524 3.188 9.758 2.125 2.236 5.177 3.354 9.158 3.354 4.043 0 7.109-1.112 9.206-3.335 2.092-2.223 3.141-5.468 3.141-9.739 0-4.286-1.041-7.535-3.124-9.746m-9.187 2.311c1.691 0 2.962.604 3.813 1.813s1.275 3.084 1.275 5.619c0 2.522-.421 4.38-1.261 5.57-.836 1.192-2.125 1.788-3.863 1.788-3.414 0-5.123-2.452-5.123-7.358 0-4.954 1.72-7.432 5.159-7.432m40.002-5.227h-6.114v11.478c0 1.551.083 3.605.244 6.164h-.104l-9.238-17.642h-8.961v25.387h6.078v-11.443c0-1.481-.111-3.629-.33-6.443h.155l9.273 17.887h8.997v-25.388zm22.644 3.124c-2.215-2.083-5.364-3.124-9.439-3.124h-8.785v25.387h8.214c4.226 0 7.504-1.146 9.838-3.439 2.329-2.292 3.496-5.554 3.496-9.795 0-3.935-1.109-6.943-3.324-9.029m-5.253 14.819c-.972 1.21-2.502 1.816-4.584 1.816h-1.529v-14.22h1.999c1.874 0 3.271.56 4.193 1.683.92 1.125 1.379 2.848 1.379 5.175 0 2.488-.484 4.34-1.458 5.546m27.135 1.854h-8.214v-4.793h7.604v-5.508h-7.604v-3.992h8.214v-5.504h-15.075v25.387h15.075v-5.59zm37.541 5.589l-8.387-25.491h-9.152l-8.286 25.491h7.54l1.285-4.757h8.247l1.249 4.757h7.504zM217.9 214.182c1.052-3.985 1.734-6.653 2.039-8.006.308-1.354.513-2.327.617-2.92.116.64.356 1.691.722 3.163.363 1.47.675 2.667.93 3.595l1.091 4.168H217.9zm6.495-17.036v-.503l-1.023-1.148c-1.748-1.885-2.926-3.234-3.525-4.046h-7.468v.366c1.088.858 2.413 1.83 3.967 2.926 1.558 1.095 2.736 1.896 3.536 2.405h4.513zm37.851 4.131c-1.608-1.4-4.017-2.1-7.223-2.1h-8.786v25.387h6.857v-8.423h1.929c3.08 0 5.457-.772 7.13-2.32 1.67-1.543 2.506-3.733 2.506-6.57 0-2.581-.804-4.572-2.413-5.974m-9.152 3.441h1.775c1.895 0 2.846.854 2.846 2.566 0 1.021-.304 1.821-.912 2.398-.606.578-1.429.869-2.459.869h-1.25v-5.833zm35.175-2.624c-2.082-2.212-5.146-3.318-9.185-3.318-4.027 0-7.101 1.117-9.212 3.347-2.115 2.226-3.17 5.453-3.17 9.679 0 4.272 1.063 7.524 3.188 9.758 2.122 2.236 5.177 3.354 9.157 3.354 4.04 0 7.109-1.112 9.203-3.335 2.097-2.223 3.146-5.468 3.146-9.739 0-4.286-1.042-7.535-3.127-9.746m-9.185 2.311c1.688 0 2.959.604 3.811 1.813.851 1.21 1.276 3.084 1.276 5.619 0 2.522-.419 4.38-1.259 5.57-.84 1.192-2.126 1.788-3.864 1.788-3.413 0-5.122-2.452-5.122-7.358 0-4.954 1.72-7.432 5.158-7.432m24.426 10.921l5.381 9.238h7.78l-7.396-11.063c2.868-1.607 4.304-3.885 4.304-6.824 0-5-3.45-7.5-10.351-7.5h-8.314v25.387h6.857v-9.238h1.739zm-1.739-10.958h1.353c2.353 0 3.526.873 3.526 2.621 0 2.119-1.196 3.178-3.594 3.178h-1.285v-5.799zm27.343.417h6.183v-5.607h-19.24v5.607h6.196v19.779h6.861v-19.779zm23.818 14.19h-8.215v-4.793h7.604v-5.508h-7.604v-3.992h8.215v-5.504H337.86v25.387h15.071v-5.59zm-7.016-21.829c.833-.521 2.062-1.354 3.681-2.502 1.623-1.146 2.895-2.09 3.819-2.829v-.366h-7.431c-.313.441-.707.94-1.189 1.493-.48.557-1.611 1.788-3.396 3.701v.503h4.516zm25.466 21.829h-8.214v-4.793h7.607v-5.508h-7.607v-3.992h8.214v-5.504h-15.071v25.387h15.071v-5.59zm32.685-16.673c-2.215-2.083-5.364-3.124-9.439-3.124h-8.784v25.387h8.214c4.226 0 7.505-1.146 9.838-3.439 2.334-2.292 3.5-5.554 3.5-9.795 0-3.935-1.11-6.943-3.329-9.029m-5.252 14.819c-.974 1.21-2.499 1.816-4.585 1.816h-1.526v-14.22h1.996c1.874 0 3.274.56 4.194 1.683.919 1.125 1.379 2.848 1.379 5.175 0 2.488-.485 4.34-1.458 5.546m27.135 1.854h-8.215v-4.793h7.608v-5.508h-7.608v-3.992h8.215v-5.504h-15.072v25.387h15.072v-5.59zm32.05 5.589l5.123-18.249h.158c-.14 2.753-.219 4.484-.233 5.191-.018.702-.028 1.346-.028 1.928v11.13h6.304v-25.387h-9.151L454.98 217.2h-.141l-5.295-18.022h-9.133v25.387h6.078v-11.026c0-1.727-.123-4.146-.366-7.259h.157l5.192 18.285H458zm38.804 0l-8.388-25.491h-9.151l-8.282 25.491h7.536l1.285-4.757h8.25l1.25 4.757h7.5zm-15.575-10.382c1.051-3.985 1.733-6.653 2.039-8.006.308-1.354.513-2.327.617-2.92.115.64.355 1.691.722 3.163.363 1.47.672 2.667.927 3.595l1.094 4.168h-5.399zm24.148-15.004h-6.894v25.387h6.894v-25.387zm28.593 0h-6.114v11.478c0 1.551.083 3.605.244 6.164h-.104l-9.238-17.642h-8.961v25.387h6.078v-11.443c0-1.481-.11-3.629-.33-6.443h.154l9.273 17.887h8.998v-25.388z"></path>
  </g>
</svg>